<?xml version="1.0" standalone="no"?>
<!DOCTYPE svg PUBLIC "-//W3C//DTD SVG 20010904//EN"
 "http://www.w3.org/TR/2001/REC-SVG-20010904/DTD/svg10.dtd">
<svg version="1.0" xmlns="http://www.w3.org/2000/svg"
 width="500.000000pt" height="500.000000pt" viewBox="0 0 500.000000 500.000000"
 preserveAspectRatio="xMidYMid meet">
<metadata>
Created by potrace 1.16, written by Peter Selinger 2001-2019
</metadata>
<g transform="translate(0.000000,500.000000) scale(0.100000,-0.100000)"
fill="#000000" stroke="none">
<path d="M2120 4549 l-225 -149 -271 0 c-205 0 -274 -3 -282 -12 -6 -7 -84
-140 -174 -295 l-163 -281 -275 -182 c-151 -100 -276 -184 -278 -185 -2 -2 4
-122 13 -268 l17 -266 -141 -242 -142 -243 175 -306 174 -305 16 -280 c9 -154
19 -303 22 -332 l5 -51 237 -119 238 -118 136 -235 135 -235 349 -5 349 -5
301 -152 300 -151 235 154 234 154 266 0 266 0 167 288 166 287 288 189 c158
104 288 190 288 190 1 1 -4 96 -11 211 -8 116 -15 242 -16 280 l-3 71 133 228
c83 143 130 234 126 244 -3 9 -77 140 -165 292 l-159 277 -20 329 c-12 181
-21 336 -21 344 0 10 -88 59 -249 139 l-248 124 -134 234 -134 233 -335 0
-335 0 -302 150 c-167 83 -309 150 -316 149 -6 0 -113 -68 -237 -150z m435
-82 l130 -66 -128 0 c-76 -1 -137 4 -149 10 -15 8 -30 8 -57 0 -20 -7 -75 -11
-125 -9 l-89 3 114 76 c132 89 98 90 304 -14z m1540 -1109 c292 -507 531 -928
533 -934 2 -7 -238 -429 -534 -938 l-537 -926 -1070 2 -1071 3 -533 929 c-294
511 -532 932 -531 936 2 4 244 422 538 928 l535 922 1070 0 1070 0 530 -922z
m199 120 c4 -68 9 -148 13 -178 3 -30 3 -53 1 -50 -20 20 -128 223 -128 240 0
12 -13 33 -28 48 -16 15 -41 50 -57 77 -15 28 -37 65 -48 83 l-19 33 129 -65
130 -65 7 -123z m-3501 -30 c-36 -62 -71 -117 -79 -121 -8 -4 -14 -16 -14 -25
-1 -26 -99 -188 -104 -171 -2 8 -7 66 -11 130 l-6 116 138 91 c76 49 139 91
140 91 1 1 -28 -50 -64 -111z m3619 -1904 l4 -80 -119 -80 c-66 -43 -133 -88
-150 -99 l-31 -20 32 55 c18 30 47 81 64 112 18 31 42 62 55 69 15 8 23 22 23
37 0 14 24 67 53 119 l52 93 7 -62 c3 -35 8 -99 10 -144z m-3652 -94 c33 -58
60 -112 60 -122 0 -9 6 -21 14 -25 14 -8 120 -183 111 -183 -3 0 -56 26 -119
57 l-115 57 -6 85 c-3 47 -8 122 -11 166 -4 44 -4 77 0 74 3 -3 33 -52 66
-109z m1835 -1022 c19 -9 30 -8 48 1 14 7 58 11 121 9 l99 -3 -118 -79 -119
-79 -160 81 -161 81 132 0 c80 1 142 -4 158 -11z"/>
<path d="M1476 4138 c-50 -79 -989 -1705 -989 -1714 0 -6 224 -401 498 -878
l498 -866 568 0 569 0 0 409 0 408 41 27 c50 33 94 101 119 185 19 58 20 94
20 486 l0 424 -22 26 c-13 14 -52 36 -88 49 l-65 24 -3 126 c-2 78 2 134 8
147 11 20 16 20 448 17 429 -3 438 -4 495 -27 32 -12 77 -37 100 -55 43 -33
98 -114 119 -176 17 -50 24 -954 8 -1030 -28 -129 -108 -224 -227 -271 -53
-21 -78 -23 -305 -27 l-248 -4 0 -369 0 -369 234 0 c175 0 236 3 244 13 6 6
234 397 507 867 414 713 494 858 486 875 -5 11 -230 403 -499 870 l-489 850
-1006 3 -1006 2 -15 -22z m1019 -306 c107 -40 180 -117 216 -230 19 -57 22
-98 27 -283 4 -193 3 -217 -13 -232 -14 -15 -40 -17 -184 -17 -118 0 -172 4
-183 13 -14 10 -17 38 -20 170 l-3 159 -33 29 c-32 29 -34 29 -153 29 -129 0
-167 -10 -191 -53 -9 -16 -14 -89 -16 -254 l-4 -232 359 -117 c197 -64 371
-123 386 -131 54 -28 57 -48 57 -450 0 -205 -5 -397 -11 -433 -21 -132 -93
-239 -194 -286 -86 -41 -138 -46 -428 -42 -259 3 -275 5 -332 27 -81 33 -163
115 -196 196 -22 57 -23 71 -24 305 l0 245 190 0 190 0 5 -157 c6 -179 15
-202 86 -226 58 -20 230 -12 266 12 43 28 49 70 46 300 l-3 209 -360 118
c-198 65 -369 123 -381 130 -42 22 -44 41 -44 485 0 403 1 428 21 486 37 110
94 175 193 219 76 33 124 38 406 35 246 -2 269 -3 325 -24z"/>
<path d="M3020 2216 l0 -406 155 0 c167 0 202 8 227 53 9 16 14 97 16 297 4
327 -1 390 -33 428 l-23 27 -171 3 -171 3 0 -405z"/>
</g>
</svg>
