<?xml version="1.0" standalone="no"?>
<!DOCTYPE svg PUBLIC "-//W3C//DTD SVG 20010904//EN"
 "http://www.w3.org/TR/2001/REC-SVG-20010904/DTD/svg10.dtd">
<svg version="1.0" xmlns="http://www.w3.org/2000/svg"
 width="243.000000pt" height="245.000000pt" viewBox="0 0 243.000000 245.000000"
 preserveAspectRatio="xMidYMid meet">
<metadata>
Created by potrace 1.16, written by Peter Selinger 2001-2019
</metadata>
<g transform="translate(0.000000,245.000000) scale(0.100000,-0.100000)"
fill="#000000" stroke="none">
<path d="M1021 2360 l-121 -80 -144 0 -144 0 -91 -157 -91 -158 -146 -95 -146
-95 7 -144 6 -144 -71 -122 c-38 -67 -70 -128 -70 -134 0 -7 40 -81 88 -165
l89 -152 10 -174 c9 -141 14 -176 27 -186 9 -6 68 -38 130 -70 l113 -58 69
-123 69 -123 183 0 182 0 161 -81 161 -80 122 80 122 81 141 0 141 0 88 151
88 152 154 100 154 100 -7 152 -7 153 70 119 70 120 -88 153 -87 153 -7 116
c-4 64 -9 147 -13 184 l-6 68 -132 66 -132 66 -69 123 -69 124 -178 0 -177 0
-160 80 c-88 44 -162 80 -164 80 -2 0 -59 -36 -125 -80z m1041 -639 c153 -266
278 -488 278 -493 0 -5 -126 -227 -281 -494 l-281 -484 -566 2 -565 3 -279
485 c-153 266 -278 488 -278 492 0 4 127 226 282 493 l282 485 565 -2 565 -3
278 -484z"/>
<path d="M420 1693 c-146 -251 -264 -461 -262 -467 2 -5 120 -214 264 -463
l260 -453 304 0 304 0 0 214 c0 200 1 216 19 228 10 8 30 31 43 53 22 39 23
46 23 290 l0 250 -42 20 -42 20 -1 73 0 72 235 0 c272 0 299 -6 347 -81 37
-57 40 -87 36 -364 -3 -275 -9 -296 -86 -350 -43 -29 -46 -30 -188 -33 l-144
-4 0 -194 0 -194 128 0 128 0 260 447 c142 245 262 451 266 458 4 7 -106 209
-256 471 l-264 459 -534 3 -533 2 -265 -457z m818 266 c26 -13 54 -38 70 -62
26 -38 27 -48 30 -184 l3 -144 -98 3 -98 3 -5 86 c-7 112 -13 119 -102 119
-110 0 -108 2 -108 -155 l0 -133 190 -62 c105 -34 197 -68 205 -77 12 -12 15
-54 15 -241 -1 -286 -11 -321 -107 -363 -54 -25 -223 -35 -321 -20 -86 13
-132 40 -164 96 -21 36 -23 52 -23 175 l0 135 90 3 c110 3 115 -1 115 -103 0
-99 9 -109 98 -109 103 -1 106 4 110 158 l4 122 -194 63 c-106 35 -201 71
-211 79 -17 15 -18 35 -15 257 3 233 4 241 27 283 18 30 39 49 75 67 47 24 59
25 210 25 142 0 164 -2 204 -21z"/>
<path d="M1490 1115 l0 -215 89 0 c104 0 116 7 127 75 11 76 1 320 -15 339
-11 13 -33 16 -107 16 l-94 0 0 -215z"/>
</g>
</svg>

